<?xml version="1.0" encoding="UTF-8"?>
<svg id="Start_artboard" data-name="Start artboard" xmlns="http://www.w3.org/2000/svg" viewBox="0 0 512 256">
  <defs>
    <style>
      .cls-1 {
        fill: #d4af36;
      }

      .cls-2 {
        font-size: 48.78px;
      }

      .cls-2, .cls-3 {
        font-family: GaramondPremrPro-MedDisp, 'Garamond Premier Pro';
      }

      .cls-3 {
        font-size: 54.87px;
      }

      .cls-4 {
        font-size: 26px;
      }

      .cls-4, .cls-5 {
        font-family: GaramondPremrPro-MedIt, 'Garamond Premier Pro';
        font-style: italic;
      }

      .cls-6 {
        letter-spacing: .23em;
      }

      .cls-7 {
        letter-spacing: .23em;
      }

      .cls-8 {
        letter-spacing: .23em;
      }

      .cls-9 {
        letter-spacing: .23em;
      }

      .cls-10 {
        letter-spacing: .24em;
      }

      .cls-11 {
        letter-spacing: .24em;
      }

      .cls-12 {
        letter-spacing: .24em;
      }

      .cls-13 {
        letter-spacing: .25em;
      }

      .cls-14 {
        letter-spacing: .25em;
      }

      .cls-5 {
        font-size: 36.58px;
      }

      .cls-15 {
        letter-spacing: -.02em;
      }

      .cls-16 {
        letter-spacing: -.02em;
      }

      .cls-17 {
        letter-spacing: -.01em;
      }

      .cls-18 {
        letter-spacing: -.01em;
      }

      .cls-19 {
        letter-spacing: -.02em;
      }

      .cls-20 {
        letter-spacing: -.02em;
      }

      .cls-21 {
        letter-spacing: -.03em;
      }

      .cls-22 {
        letter-spacing: -.03em;
      }

      .cls-23 {
        letter-spacing: 0em;
      }

      .cls-24 {
        letter-spacing: 0em;
      }

      .cls-25 {
        letter-spacing: 0em;
      }

      .cls-26 {
        letter-spacing: 0em;
      }

      .cls-27 {
        letter-spacing: 0em;
      }

      .cls-28 {
        letter-spacing: 0em;
      }

      .cls-29 {
        letter-spacing: -.01em;
      }

      .cls-30 {
        letter-spacing: -.01em;
      }

      .cls-31 {
        letter-spacing: -.01em;
      }

      .cls-32 {
        letter-spacing: -.01em;
      }

      .cls-33 {
        letter-spacing: 0em;
      }

      .cls-34 {
        letter-spacing: 0em;
      }

      .cls-35 {
        letter-spacing: 0em;
      }

      .cls-36 {
        letter-spacing: .12em;
      }

      .cls-37 {
        letter-spacing: .12em;
      }

      .cls-38 {
        letter-spacing: .01em;
      }

      .cls-39 {
        letter-spacing: .01em;
      }

      .cls-40 {
        letter-spacing: 0em;
      }

      .cls-41 {
        letter-spacing: 0em;
      }

      .cls-42 {
        letter-spacing: 0em;
      }
    </style>
  </defs>
  <text class="cls-1" transform="translate(-475.64 34.78)"><tspan class="cls-3"><tspan class="cls-10" x="0" y="0">S</tspan><tspan class="cls-8" x="37.59" y="0">a</tspan><tspan class="cls-10" x="69.41" y="0">vor </tspan><tspan class="cls-37" x="190.62" y="0">T</tspan><tspan class="cls-13" x="228.32" y="0">a</tspan><tspan class="cls-12" x="261.24" y="0">s</tspan><tspan class="cls-6" x="290.27" y="0">t</tspan><tspan class="cls-12" x="317.71" y="0">e</tspan></tspan><tspan class="cls-5"><tspan class="cls-16" x="-42.95" y="47.56">M</tspan><tspan class="cls-25" x="-11.67" y="47.56">or</tspan><tspan x="16.06" y="47.56">e </tspan><tspan class="cls-30" x="36.14" y="47.56">t</tspan><tspan class="cls-35" x="46.79" y="47.56">h</tspan><tspan x="64.53" y="47.56">an </tspan><tspan class="cls-17" x="107" y="47.56">f</tspan><tspan class="cls-25" x="115.96" y="47.56">o</tspan><tspan x="130.78" y="47.56">o</tspan><tspan class="cls-39" x="145.78" y="47.56">d</tspan><tspan x="164.1" y="47.56">. </tspan><tspan class="cls-20" x="179.76" y="47.56">I</tspan><tspan class="cls-30" x="191.83" y="47.56">t</tspan><tspan class="cls-22" x="202.48" y="47.56">’</tspan><tspan x="208.59" y="47.56">s a </tspan><tspan class="cls-25" x="250.11" y="47.56">s</tspan><tspan class="cls-29" x="260.39" y="47.56">t</tspan><tspan class="cls-24" x="271.07" y="47.56">a</tspan><tspan class="cls-35" x="287.42" y="47.56">t</tspan><tspan class="cls-41" x="298.18" y="47.56">e</tspan><tspan class="cls-28" x="311.27" y="47.56">m</tspan><tspan class="cls-41" x="338.34" y="47.56">e</tspan><tspan class="cls-35" x="351.44" y="47.56">n</tspan><tspan x="369.76" y="47.56">t</tspan></tspan></text>
  <text class="cls-1" transform="translate(184.22 123.74)"><tspan class="cls-2"><tspan class="cls-11" x="0" y="0">S</tspan><tspan class="cls-9" x="33.42" y="0">a</tspan><tspan class="cls-11" x="61.71" y="0">vor </tspan><tspan class="cls-36" x="169.47" y="0">T</tspan><tspan class="cls-14" x="202.99" y="0">a</tspan><tspan class="cls-11" x="232.25" y="0">s</tspan><tspan class="cls-7" x="258.06" y="0">t</tspan><tspan class="cls-11" x="282.45" y="0">e</tspan></tspan><tspan class="cls-4"><tspan class="cls-15" x="-.8" y="36">M</tspan><tspan class="cls-26" x="21.43" y="36">or</tspan><tspan x="41.14" y="36">e </tspan><tspan class="cls-31" x="55.41" y="36">t</tspan><tspan class="cls-34" x="62.98" y="36">h</tspan><tspan x="75.59" y="36">an </tspan><tspan class="cls-18" x="105.77" y="36">f</tspan><tspan class="cls-26" x="112.14" y="36">o</tspan><tspan x="122.67" y="36">o</tspan><tspan class="cls-38" x="133.33" y="36">d</tspan><tspan x="146.36" y="36">. </tspan><tspan class="cls-19" x="157.49" y="36">I</tspan><tspan class="cls-31" x="166.07" y="36">t</tspan><tspan class="cls-21" x="173.63" y="36">’</tspan><tspan x="177.97" y="36">s a </tspan><tspan class="cls-26" x="207.48" y="36">s</tspan><tspan class="cls-32" x="214.79" y="36">t</tspan><tspan class="cls-23" x="222.38" y="36">a</tspan><tspan class="cls-33" x="234" y="36">t</tspan><tspan class="cls-42" x="241.65" y="36">e</tspan><tspan class="cls-27" x="250.96" y="36">m</tspan><tspan class="cls-40" x="270.19" y="36">e</tspan><tspan class="cls-34" x="279.5" y="36">n</tspan><tspan x="292.53" y="36">t</tspan></tspan></text>
  <path class="cls-1" d="M172.73,146.66c.03.91-.71,1.67-1.62,1.67h-81.93c1.39-4.14,3.18-8.59,5.53-13.24,8.45-16.68,19.99-27.71,28.1-34.17-9.02,5.22-22.38,14.58-33.89,29.98-4.57,6.13-8,12.05-10.61,17.44h-8.85c-.91,0-1.67-.77-1.64-1.67.88-28.36,24.05-48.58,52.44-48.58s51.59,20.22,52.47,48.58Z"/>
  <path class="cls-1" d="M72.44,121.49c1.04-2.07,1.78-2.13,4.49-5.73,1.99-2.64,3.18-4.24,4.01-6.21.5-1.2,1.24-3.48.41-11.6-.31-3.04-.86-7.1-1.91-11.87-.12.01-.23.03-.35.04-.91.17-3.5.37-6.46.45-.33.01-.65.02-.99.03-.35,0-.71.01-1.07.02-.3,0-.6,0-.9,0-.24,0-.48,0-.72,0-.13,0-.26,0-.39,0-3.69-.04-7.22-.27-8.32-.49h0c-.12-.01-.23-.03-.35-.04-.38,2.45-.89,6.04-1.31,10.42-.99,10.2-.36,12.55.15,13.94,1.61,4.4,3.61,3.51,6.6,8.7,4.45,7.72,3.16,15.64,3.18,17.49.06,4.69-1,6.69-1.78,7.53h0c-4.53.35-7.84,1.5-7.84,2.86,0,1.64,4.82,2.97,10.77,2.97,5.95,0,10.77-1.33,10.77-2.97,0-1.27-2.91-2.36-6.99-2.78h0c-1.22-.4-1.79-3.83-1.79-3.83,0-.12-.73-5.26-.55-10.49.14-4.05.21-6.08,1.38-8.42ZM67.27,115.85c-1.7-.51-2.81-1.52-3.31-1.99-1.88-1.75-2.55-3.79-2.96-5.16-.65-2.19-.66-4.23-.69-6.99-.02-2.47.17-4.53.34-5.96.81-.12,2.01-.16,3.15.43,1.26.65,1.8,1.73,2.49,2.95,2.09,3.69,3.14,5.54,4.3,5.87,1.22.34,3.38-.7,7.55-7.34,1.65,8.41-.47,15.55-4.51,17.51-3.31,1.61-6.37.69-6.37.69Z"/>
  <circle class="cls-1" cx="121.05" cy="84.5" r="8.9"/>
</svg>