<svg xmlns="http://www.w3.org/2000/svg" width="20" height="20" viewBox="0 0 20 20">
  <defs>
    <style>
      .cls-1, .cls-2 {
        fill: #f8f4ee;
      }

      .cls-1 {
        opacity: 0;
      }
    </style>
  </defs>
  <g id="Circle_Button_SIZE_MEDIUM_STATE_DEFAULT_STYLE_STYLE3_" data-name="Circle Button [SIZE=MEDIUM][STATE=DEFAULT][STYLE=STYLE3]" transform="translate(-14 -14)">
    <g id="Icon_ICON_feather_twitter_SIZE_MEDIUM_STATE_DEFAULT_STYLE_STYLE3_" data-name="Icon [ICON=feather/twitter][SIZE=MEDIUM][STATE=DEFAULT][STYLE=STYLE3]" transform="translate(14 14)">
      <rect id="Area_ICON:feather_twitter_SIZE:MEDIUM_STATE:DEFAULT_STYLE:STYLE3_" data-name="Area [ICON:feather/twitter][SIZE:MEDIUM][STATE:DEFAULT][STYLE:STYLE3]" class="cls-1" width="20" height="20"/>
      <g id="Icon" transform="translate(0.833 2.491)">
        <path id="_62613406-7a29-4c8b-b512-c300948ddc78" data-name="62613406-7a29-4c8b-b512-c300948ddc78" class="cls-2" d="M20.909,2.727a9.9,9.9,0,0,1-2.854,1.391,4.073,4.073,0,0,0-7.146,2.727v.91A9.691,9.691,0,0,1,2.727,3.636S-.909,11.818,7.273,15.455A10.59,10.59,0,0,1,.909,17.273c8.182,4.545,18.182,0,18.182-10.455a4.056,4.056,0,0,0-.073-.754A7.017,7.017,0,0,0,20.909,2.727Z" transform="translate(-1.742 -3.366)"/>
      </g>
    </g>
  </g>
</svg>
